<svg xmlns="http://www.w3.org/2000/svg" xmlns:xlink="http://www.w3.org/1999/xlink" width="500" zoomAndPan="magnify" viewBox="0 0 375 374.999991" height="500" preserveAspectRatio="xMidYMid meet" version="1.0"><defs><g/><clipPath id="db3a5c713c"><path d="M 52.136719 140.554688 L 103.886719 140.554688 L 103.886719 175.054688 L 52.136719 175.054688 Z M 52.136719 140.554688 " clip-rule="nonzero"/></clipPath></defs><g clip-path="url(#db3a5c713c)"><path fill="#00d300" d="M 65.15625 175.046875 L 52.160156 162.578125 L 59.511719 155.78125 L 64.789062 162.839844 C 64.789062 162.839844 81.753906 145.28125 103.859375 140.554688 C 78.648438 152.988281 65.15625 175.046875 65.15625 175.046875 Z M 65.15625 175.046875 " fill-opacity="1" fill-rule="nonzero"/></g><g fill="#000000" fill-opacity="1"><g transform="translate(65.08868, 176.336448)"><g><path d="M 2.875 0 L 2.875 -41.125 L 11.328125 -41.125 L 11.328125 -21.953125 L 11.421875 -21.953125 C 13.617188 -24.148438 15.960938 -25.25 18.453125 -25.25 C 19.660156 -25.25 20.863281 -25.085938 22.0625 -24.765625 C 23.257812 -24.441406 24.40625 -23.945312 25.5 -23.28125 C 26.601562 -22.613281 27.5 -21.664062 28.1875 -20.4375 C 28.875 -19.207031 29.21875 -17.78125 29.21875 -16.15625 L 29.21875 0 L 20.75 0 L 20.75 -13.859375 C 20.75 -15.140625 20.34375 -16.253906 19.53125 -17.203125 C 18.71875 -18.160156 17.660156 -18.640625 16.359375 -18.640625 C 15.078125 -18.640625 13.914062 -18.144531 12.875 -17.15625 C 11.84375 -16.175781 11.328125 -15.078125 11.328125 -13.859375 L 11.328125 0 Z M 2.875 0 "/></g></g></g><g fill="#000000" fill-opacity="1"><g transform="translate(95.729474, 176.336448)"><g><path d="M 4.53125 -3.03125 C 2.238281 -5.539062 1.09375 -8.609375 1.09375 -12.234375 C 1.09375 -15.867188 2.238281 -18.945312 4.53125 -21.46875 C 6.832031 -23.988281 9.753906 -25.25 13.296875 -25.25 C 16.546875 -25.25 19.222656 -24.226562 21.328125 -22.1875 L 21.328125 -24.53125 L 29.78125 -24.53125 L 29.78125 0 L 21.421875 0 L 21.421875 -2.765625 L 21.328125 -2.765625 C 19.222656 -0.441406 16.546875 0.71875 13.296875 0.71875 C 9.753906 0.71875 6.832031 -0.53125 4.53125 -3.03125 Z M 11.734375 -16.40625 C 10.640625 -15.320312 10.09375 -13.929688 10.09375 -12.234375 C 10.09375 -10.546875 10.617188 -9.164062 11.671875 -8.09375 C 12.722656 -7.03125 14.109375 -6.5 15.828125 -6.5 C 17.484375 -6.5 18.84375 -7.039062 19.90625 -8.125 C 20.976562 -9.207031 21.515625 -10.578125 21.515625 -12.234375 C 21.515625 -13.929688 20.960938 -15.320312 19.859375 -16.40625 C 18.765625 -17.488281 17.421875 -18.03125 15.828125 -18.03125 C 14.203125 -18.03125 12.835938 -17.488281 11.734375 -16.40625 Z M 11.734375 -16.40625 "/></g></g></g><g fill="#000000" fill-opacity="1"><g transform="translate(127.421906, 176.336448)"><g><path d="M 28.109375 -21.46875 C 30.410156 -18.945312 31.5625 -15.867188 31.5625 -12.234375 C 31.5625 -8.609375 30.410156 -5.539062 28.109375 -3.03125 C 25.816406 -0.53125 22.898438 0.71875 19.359375 0.71875 C 16.109375 0.71875 13.429688 -0.441406 11.328125 -2.765625 L 11.234375 -2.765625 L 11.234375 0 L 2.875 0 L 2.875 -41.125 L 11.328125 -41.125 L 11.328125 -22.1875 C 13.429688 -24.226562 16.109375 -25.25 19.359375 -25.25 C 22.898438 -25.25 25.816406 -23.988281 28.109375 -21.46875 Z M 20.984375 -8.09375 C 22.035156 -9.164062 22.5625 -10.546875 22.5625 -12.234375 C 22.5625 -13.929688 22.007812 -15.320312 20.90625 -16.40625 C 19.8125 -17.488281 18.453125 -18.03125 16.828125 -18.03125 C 15.234375 -18.03125 13.882812 -17.488281 12.78125 -16.40625 C 11.6875 -15.320312 11.140625 -13.929688 11.140625 -12.234375 C 11.140625 -10.578125 11.671875 -9.207031 12.734375 -8.125 C 13.804688 -7.039062 15.171875 -6.5 16.828125 -6.5 C 18.546875 -6.5 19.929688 -7.03125 20.984375 -8.09375 Z M 20.984375 -8.09375 "/></g></g></g><g fill="#000000" fill-opacity="1"><g transform="translate(159.114341, 176.336448)"><g><path d="M 3.671875 -38.203125 C 4.660156 -39.191406 5.84375 -39.6875 7.21875 -39.6875 C 8.59375 -39.6875 9.769531 -39.191406 10.75 -38.203125 C 11.738281 -37.210938 12.234375 -36.03125 12.234375 -34.65625 C 12.234375 -33.289062 11.738281 -32.113281 10.75 -31.125 C 9.769531 -30.132812 8.59375 -29.640625 7.21875 -29.640625 C 5.84375 -29.640625 4.660156 -30.132812 3.671875 -31.125 C 2.691406 -32.113281 2.203125 -33.289062 2.203125 -34.65625 C 2.203125 -36.03125 2.691406 -37.210938 3.671875 -38.203125 Z M 2.875 -24.53125 L 2.875 0 L 11.328125 0 L 11.328125 -24.53125 Z M 2.875 -24.53125 "/></g></g></g><g fill="#000000" fill-opacity="1"><g transform="translate(172.594157, 176.336448)"><g><path d="M 4.296875 -24.53125 L 4.296875 -33.65625 L 12.765625 -33.65625 L 12.765625 -24.53125 L 17.921875 -24.53125 L 17.921875 -18.078125 L 12.765625 -18.078125 L 12.765625 -10.28125 C 12.765625 -8.019531 13.398438 -6.890625 14.671875 -6.890625 C 14.992188 -6.890625 15.328125 -6.953125 15.671875 -7.078125 C 16.023438 -7.203125 16.300781 -7.328125 16.5 -7.453125 L 16.78125 -7.65625 L 18.890625 -0.8125 C 17.066406 0.207031 14.992188 0.71875 12.671875 0.71875 C 11.078125 0.71875 9.707031 0.441406 8.5625 -0.109375 C 7.414062 -0.671875 6.546875 -1.421875 5.953125 -2.359375 C 5.359375 -3.304688 4.929688 -4.296875 4.671875 -5.328125 C 4.421875 -6.367188 4.296875 -7.476562 4.296875 -8.65625 L 4.296875 -18.078125 L 0.765625 -18.078125 L 0.765625 -24.53125 Z M 4.296875 -24.53125 "/></g></g></g><g fill="#000000" fill-opacity="1"><g transform="translate(190.519573, 176.336448)"><g><path d="M 2.875 0 L 2.875 -24.53125 L 11.328125 -24.53125 L 11.328125 -20.984375 L 11.421875 -20.984375 C 11.484375 -21.117188 11.585938 -21.28125 11.734375 -21.46875 C 11.878906 -21.65625 12.191406 -21.988281 12.671875 -22.46875 C 13.148438 -22.945312 13.660156 -23.378906 14.203125 -23.765625 C 14.742188 -24.148438 15.441406 -24.492188 16.296875 -24.796875 C 17.160156 -25.097656 18.039062 -25.25 18.9375 -25.25 C 19.851562 -25.25 20.757812 -25.117188 21.65625 -24.859375 C 22.550781 -24.609375 23.207031 -24.351562 23.625 -24.09375 L 24.28125 -23.71875 L 20.75 -16.546875 C 19.695312 -17.429688 18.234375 -17.875 16.359375 -17.875 C 15.335938 -17.875 14.457031 -17.648438 13.71875 -17.203125 C 12.988281 -16.765625 12.472656 -16.222656 12.171875 -15.578125 C 11.867188 -14.941406 11.648438 -14.398438 11.515625 -13.953125 C 11.390625 -13.515625 11.328125 -13.164062 11.328125 -12.90625 L 11.328125 0 Z M 2.875 0 "/></g></g></g><g fill="#000000" fill-opacity="1"><g transform="translate(213.368618, 176.336448)"><g><path d="M 4.53125 -3.03125 C 2.238281 -5.539062 1.09375 -8.609375 1.09375 -12.234375 C 1.09375 -15.867188 2.238281 -18.945312 4.53125 -21.46875 C 6.832031 -23.988281 9.753906 -25.25 13.296875 -25.25 C 16.546875 -25.25 19.222656 -24.226562 21.328125 -22.1875 L 21.328125 -24.53125 L 29.78125 -24.53125 L 29.78125 0 L 21.421875 0 L 21.421875 -2.765625 L 21.328125 -2.765625 C 19.222656 -0.441406 16.546875 0.71875 13.296875 0.71875 C 9.753906 0.71875 6.832031 -0.53125 4.53125 -3.03125 Z M 11.734375 -16.40625 C 10.640625 -15.320312 10.09375 -13.929688 10.09375 -12.234375 C 10.09375 -10.546875 10.617188 -9.164062 11.671875 -8.09375 C 12.722656 -7.03125 14.109375 -6.5 15.828125 -6.5 C 17.484375 -6.5 18.84375 -7.039062 19.90625 -8.125 C 20.976562 -9.207031 21.515625 -10.578125 21.515625 -12.234375 C 21.515625 -13.929688 20.960938 -15.320312 19.859375 -16.40625 C 18.765625 -17.488281 17.421875 -18.03125 15.828125 -18.03125 C 14.203125 -18.03125 12.835938 -17.488281 11.734375 -16.40625 Z M 11.734375 -16.40625 "/></g></g></g><g fill="#000000" fill-opacity="1"><g transform="translate(245.061047, 176.336448)"><g><path d="M 15.921875 -18.3125 C 14.328125 -18.3125 12.957031 -17.722656 11.8125 -16.546875 C 10.664062 -15.367188 10.09375 -13.945312 10.09375 -12.28125 C 10.09375 -10.59375 10.664062 -9.160156 11.8125 -7.984375 C 12.957031 -6.804688 14.328125 -6.21875 15.921875 -6.21875 C 16.679688 -6.21875 17.40625 -6.3125 18.09375 -6.5 C 18.78125 -6.695312 19.285156 -6.890625 19.609375 -7.078125 L 20.03125 -7.359375 L 22.90625 -1.484375 C 22.675781 -1.328125 22.363281 -1.128906 21.96875 -0.890625 C 21.570312 -0.648438 20.660156 -0.320312 19.234375 0.09375 C 17.816406 0.507812 16.296875 0.71875 14.671875 0.71875 C 11.078125 0.71875 7.914062 -0.546875 5.1875 -3.078125 C 2.457031 -5.617188 1.09375 -8.65625 1.09375 -12.1875 C 1.09375 -15.757812 2.457031 -18.828125 5.1875 -21.390625 C 7.914062 -23.960938 11.078125 -25.25 14.671875 -25.25 C 16.296875 -25.25 17.796875 -25.054688 19.171875 -24.671875 C 20.546875 -24.285156 21.519531 -23.90625 22.09375 -23.53125 L 22.90625 -22.953125 L 20.03125 -17.171875 C 18.976562 -17.929688 17.609375 -18.3125 15.921875 -18.3125 Z M 15.921875 -18.3125 "/></g></g></g><g fill="#000000" fill-opacity="1"><g transform="translate(267.575467, 176.336448)"><g><path d="M 30.890625 -24.53125 L 19.21875 -12.8125 L 32.03125 0 L 21.140625 0 L 11.328125 -9.796875 L 11.328125 0 L 2.875 0 L 2.875 -41.125 L 11.328125 -41.125 L 11.328125 -15.96875 L 19.890625 -24.53125 Z M 30.890625 -24.53125 "/></g></g></g></svg>